# xmcd
#
# Track frame offsets: 
#        150
#        16676
#        29879
#        40110
#        53558
#        68771
#        80584
#        93578
#        111097
#        125069
#        142880
#        154428
#
# Disc length: 2176 seconds
#
# Revision: 0
# Processed by: cddbd v1.5.2PL0 Copyright (c) Steve Scherf et al.
# Submitted via: ExactAudioCopy v0.99pb4
#
DISCID=9f087e0c
DTITLE=Barry White and Friends - Orange Collection [CD2)
DYEAR=2008
DGENRE=Soul
TTITLE0=Long Black Veil - Barry White
TTITLE1=I've Been Loving You Too Long - Percy Sledge
TTITLE2=I Owe It All To You - Barry White
TTITLE3=I've Got The World To Hold Me Up - Barry White
TTITLE4=Woman's Gotta Have It - Bobby Womack
TTITLE5=Where Can I Turn To - Barry White
TTITLE6=Fragile, Handle With Care - Barry White
TTITLE7=Lean On Me - Al Jarreau
TTITLE8=It's Too Late - Wilson Pickett
TTITLE9=You'll Never Find Another Love Like Mine - Lou Rawls
TTITLE10=(Sitting On) The Dock Of The Bay - Percy Sledge
TTITLE11=Ain't No Sunshine (Withers) - Al Jarreau
EXTD=
EXTT0=
EXTT1=
EXTT2=
EXTT3=
EXTT4=
EXTT5=
EXTT6=
EXTT7=
EXTT8=
EXTT9=
EXTT10=
EXTT11=
PLAYORDER=
